# xmcd
#
# Track frame offsets: 
#        150
#        3372
#        28317
#        55770
#        81447
#        104777
#        138145
#        159560
#        189490
#        213527
#        243405
#        270805
#
# Disc length: 3956 seconds
#
# Revision: 2
# Processed by: cddbd v1.5.2PL0 Copyright (c) Steve Scherf et al.
# Submitted via: ExactAudioCopy v0.99pb3
#
DISCID=a10f720c
DTITLE=Knut Reiersrud - Soul of a Man
DYEAR=1998
DGENRE=
TTITLE0=Introduction
TTITLE1=Blues Power Part I
TTITLE2=I can't stop
TTITLE3=Black Widow
TTITLE4=Soul of a Man
TTITLE5=When Seasons change
TTITLE6=Big little me
TTITLE7=Let me turn you on
TTITLE8=To a friendly chap
TTITLE9=Blinded by Love
TTITLE10=Let's do it
TTITLE11=Blues Power Part II
EXTD=
EXTT0=
EXTT1=
EXTT2=
EXTT3=
EXTT4=
EXTT5=
EXTT6=
EXTT7=
EXTT8=
EXTT9=
EXTT10=
EXTT11=
PLAYORDER=
